# xmcd CD database file
#
# Track frame offsets:
#	182
#	11825
#	24760
#	41212
#	52420
#	65437
#	82675
#	95157
#	101695
#	117532
#
# Disc length: 1716 seconds
#
# Revision: 1
# Processed by: cddbd v1.4PL0 Copyright (c) Steve Scherf et al.
# Submitted via: CDex 1.40Beta9
#
DISCID=8506b20a
DTITLE=John Lee Hooker - Boom Boom
DYEAR=1900
DGENRE=Blues
TTITLE0=Boom Boom
TTITLE1=Whiskey and Wimmen
TTITLE2=Five Long Years
TTITLE3=Good Rockin' Mama
TTITLE4=Hobo Blues
TTITLE5=Blues Before Sunrise
TTITLE6=Crawling King Snake
TTITLE7=Talk That Talk Baby
TTITLE8=Thelma
TTITLE9=No Shoes
EXTD=ID3G: 0
EXTT0=
EXTT1=
EXTT2=
EXTT3=
EXTT4=
EXTT5=
EXTT6=
EXTT7=
EXTT8=
EXTT9=
PLAYORDER=
